<?xml version="1.0" encoding="UTF-8"?>
<svg xmlns="http://www.w3.org/2000/svg" xmlns:xlink="http://www.w3.org/1999/xlink" viewBox="0 0 256 256">
  <defs>
    <linearGradient x1="87.397" y1="141.973" x2="240.947" y2="141.973" id="a" gradientUnits="userSpaceOnUse" gradientTransform="translate(-129.37 -94.568) scale(1.56769)">
      <stop offset="0" stop-color="#fff" stop-opacity=".47"/>
      <stop offset=".241" stop-color="#d7d7d7" stop-opacity=".219"/>
      <stop offset=".459" stop-color="#4d4d4d" stop-opacity="0"/>
      <stop offset=".719" stop-color="#fff" stop-opacity=".471"/>
      <stop offset=".874" stop-color="#f2f2f2" stop-opacity=".4"/>
      <stop offset="1" stop-color="#fff" stop-opacity=".624"/>
    </linearGradient>
    <linearGradient xlink:href="#a" id="d" gradientUnits="userSpaceOnUse" gradientTransform="translate(-129.57 -95.333) scale(1.56769)" x1="87.397" y1="141.973" x2="269.333" y2="141.973"/>
    <linearGradient gradientUnits="userSpaceOnUse" id="b" y2="108.136" x2="126.189" y1="38.575" x1="126.189" gradientTransform="translate(-69.826 15.227) scale(1.56769)">
      <stop offset="0" stop-color="#f00000"/>
      <stop offset=".1" stop-color="#f00000"/>
      <stop offset=".16" stop-color="#ff8000"/>
      <stop offset=".297" stop-color="#ff8000"/>
      <stop offset=".358" stop-color="#ff0"/>
      <stop offset=".487" stop-color="#ff0"/>
      <stop offset=".544" stop-color="#007940"/>
      <stop offset=".675" stop-color="#007940"/>
      <stop offset=".742" stop-color="#4040ff"/>
      <stop offset=".87" stop-color="#4040ff"/>
      <stop offset=".931" stop-color="#a000c0"/>
      <stop offset="1" stop-color="#a000c0"/>
    </linearGradient>
    <linearGradient xlink:href="#b" id="c" gradientUnits="userSpaceOnUse" gradientTransform="translate(-69.826 15.227) scale(1.56769)" x1="126.189" y1="24.51" x2="129.443" y2="116.343"/>
  </defs>
  <path fill="none" d="M0 256V0h256v256"/>
  <path d="M248.36 32.472C167.273-10.43 86.184 85.849 5.096 40.005 2.281 38.417 0 39.213 0 42.03v171.94c0 2.811 2.281 6.58 5.095 8.165 81.936 46.325 163.874-52.464 245.81-6.14 2.814 1.587 5.095.793 5.095-2.024V42.03c0-2.811-2.281-6.578-5.095-8.166-.848-.479-1.696-.943-2.544-1.392z" fill="#333"/>
  <path d="M248.36 37.567c0 1.854-14.891-10.205-37.309-11.054-22.416-2.352-52.355 6.506-82.452 15.426C98.502 50.84 68.251 59.83 45.21 57.5 22.17 56.646 6.343 44.472 5.095 45.1v171.941c1.235-.802 16.907 11.481 39.798 12.395 22.89 2.4 52.999-6.569 83.107-15.507 30.11-8.93 60.219-17.857 83.108-15.438 22.89.933 38.563 13.21 39.797 12.41V38.958c-1.274-.722-2.544-1.392-2.544-1.392z" fill="#006233"/>
  <path d="M248.36 37.567c0 1.854-14.891-10.205-37.309-11.054-22.416-2.352-52.355 6.506-82.452 15.426C98.502 50.84 68.251 59.83 45.21 57.5 22.17 56.646 6.343 44.472 5.095 45.1v171.941c1.235-.802 16.907 11.481 39.798 12.395 22.89 2.4 52.999-6.569 83.107-15.507 30.11-8.93 60.219-17.857 83.108-15.438 22.89.933 38.563 13.21 39.797 12.41V38.958c-1.274-.722-2.544-1.392-2.544-1.392z" fill="url(#c)"/>
  <path d="M7.643 49.133v43.114c80.239 42.855 160.479-51.872 240.718-9.013V40.121C168.12-2.739 87.88 91.989 7.643 49.133z" fill="#e40303"/>
  <path d="M7.643 74.733v43.114c80.239 42.855 160.479-51.872 240.718-9.013V65.721c-80.24-42.86-160.48 51.868-240.718 9.012z" fill="#ff8c00"/>
  <path d="M7.643 102.893v43.114c80.239 42.855 160.479-51.872 240.718-9.013V93.881c-80.24-42.86-160.48 51.868-240.718 9.012z" fill="#ffed00"/>
  <path d="M7.643 130.426v43.113c80.239 42.855 160.479-51.871 240.718-9.012v-43.114c-80.24-42.859-160.48 51.869-240.718 9.013z" fill="#008026"/>
  <path d="M7.643 158.586v43.113c80.239 42.855 160.479-51.871 240.718-9.012v-43.114c-80.24-42.859-160.48 51.869-240.718 9.013z" fill="#004dff"/>
  <path d="M7.643 186.745v29.139c80.239 42.855 160.479-51.872 240.718-9.013v-29.586c-80.24-42.86-160.48 52.316-240.718 9.46z" fill="#750787"/>
  <path d="M248.162 206.197c-80.24-42.452-160.48 51.377-240.72 8.926V48.277c80.24 42.45 160.48-51.377 240.72-8.925v166.845z" fill="url(#d)"/>
</svg>
